<svg xmlns="http://www.w3.org/2000/svg" viewBox="0 0 1600 900" fill="none">
  <defs>
    <linearGradient id="bg" x1="128" y1="84" x2="1398" y2="811" gradientUnits="userSpaceOnUse">
      <stop stop-color="#0F172A" />
      <stop offset="1" stop-color="#312E81" />
    </linearGradient>
    <linearGradient id="accent" x1="286" y1="178" x2="1129" y2="713" gradientUnits="userSpaceOnUse">
      <stop stop-color="#38BDF8" stop-opacity="0.36" />
      <stop offset="1" stop-color="#818CF8" stop-opacity="0.12" />
    </linearGradient>
  </defs>
  <rect width="1600" height="900" rx="48" fill="url(#bg)" />
  <rect x="76" y="76" width="1448" height="748" rx="36" stroke="rgba(226,232,240,0.18)" />
  <circle cx="1296" cy="226" r="204" fill="url(#accent)" />
  <circle cx="270" cy="746" r="252" fill="url(#accent)" />
  <path d="M120 180H740" stroke="rgba(226,232,240,0.16)" stroke-width="2" />
  <path d="M120 252H644" stroke="rgba(226,232,240,0.12)" stroke-width="2" />
  <path d="M120 324H552" stroke="rgba(226,232,240,0.1)" stroke-width="2" />
  <rect x="1046" y="470" width="322" height="214" rx="28" fill="rgba(255,255,255,0.06)" />
  <rect x="1086" y="514" width="170" height="16" rx="8" fill="rgba(226,232,240,0.42)" />
  <rect x="1086" y="556" width="222" height="12" rx="6" fill="rgba(226,232,240,0.22)" />
  <rect x="1086" y="590" width="190" height="12" rx="6" fill="rgba(226,232,240,0.18)" />
  <rect x="1086" y="624" width="138" height="12" rx="6" fill="rgba(56,189,248,0.45)" />
  <path d="M1322 132L1458 132L1458 268" stroke="rgba(125,211,252,0.38)" stroke-width="3" stroke-linecap="round" />
  <path d="M142 664L142 774L252 774" stroke="rgba(129,140,248,0.34)" stroke-width="3" stroke-linecap="round" />
</svg>
