<svg xmlns="http://www.w3.org/2000/svg" viewBox="0 0 64 64" role="img" aria-labelledby="title desc">
  <title id="title">JS mark</title>
  <desc id="desc">Rounded square logo with the letters J and S</desc>
  <defs>
    <linearGradient id="bg" x1="8" y1="8" x2="56" y2="56" gradientUnits="userSpaceOnUse">
      <stop offset="0" stop-color="#0f172a" />
      <stop offset="1" stop-color="#312e81" />
    </linearGradient>
    <linearGradient id="stroke" x1="12" y1="12" x2="52" y2="52" gradientUnits="userSpaceOnUse">
      <stop offset="0" stop-color="#38bdf8" />
      <stop offset="1" stop-color="#818cf8" />
    </linearGradient>
  </defs>
  <rect x="6" y="6" width="52" height="52" rx="16" fill="url(#bg)" stroke="url(#stroke)" stroke-width="2" />
  <path d="M26 20v16c0 5.4-2.3 8-7.1 8-2.1 0-4-.5-5.8-1.5l1.9-5.1c1 .6 2.1.9 3.3.9 1.8 0 2.7-1 2.7-3V20z" fill="#f8fafc" />
  <path d="M47.8 26.3c-1.6-1.1-3.6-1.8-5.7-1.8-2.1 0-3.5.8-3.5 2.2 0 1.6 1.5 2.2 4.6 3.1 4.8 1.4 7.6 3.3 7.6 7.8 0 5.2-4.2 7.8-9.9 7.8-3.5 0-6.9-.9-9.3-2.8l2.6-4.9c1.9 1.4 4.3 2.3 6.9 2.3 2.3 0 3.8-.9 3.8-2.5 0-1.7-1.4-2.4-4.9-3.4-4.6-1.3-7.2-3.2-7.2-7.5 0-4.8 4-7.4 9.5-7.4 3.1 0 5.9.8 8.1 2.2z" fill="#7dd3fc" />
</svg>
